<?xml version="1.0" standalone="no"?>
<!DOCTYPE svg PUBLIC "-//W3C//DTD SVG 20010904//EN"
 "http://www.w3.org/TR/2001/REC-SVG-20010904/DTD/svg10.dtd">
<svg version="1.0" xmlns="http://www.w3.org/2000/svg"
 width="1800.000000pt" height="1800.000000pt" viewBox="0 0 1800.000000 1800.000000"
 preserveAspectRatio="xMidYMid meet">
<g transform="translate(0.000000,1800.000000) scale(0.100000,-0.100000)"
fill="#000000" stroke="none">
<path d="M8180 15947 c-66 -38 -202 -111 -265 -143 -38 -19 -106 -54 -150 -78
-90 -49 -87 -48 -385 -207 -118 -63 -228 -121 -244 -129 l-29 -15 -13 -31 -13
-30 3 -477 2 -477 -17 -5 -18 -6 -103 56 c-57 31 -143 76 -193 99 -89 43 -350
169 -635 308 -409 200 -489 237 -513 243 l-26 7 -59 -36 c-33 -20 -62 -36 -66
-36 -4 0 -24 -11 -46 -25 -21 -14 -88 -50 -147 -81 -127 -67 -340 -182 -473
-256 -25 -14 -99 -53 -165 -88 -66 -34 -129 -70 -139 -81 l-20 -18 -4 -671 -4
-670 15 -24 16 -24 83 -40 c46 -22 160 -77 253 -122 289 -139 306 -147 450
-214 l140 -65 26 -33 c23 -30 179 -288 219 -363 8 -17 29 -51 46 -75 16 -25
78 -126 137 -225 60 -99 166 -274 237 -390 72 -115 137 -223 145 -240 9 -16
28 -49 43 -72 15 -23 56 -91 91 -150 35 -60 75 -121 88 -136 12 -16 23 -32 23
-37 0 -7 79 -140 228 -380 40 -63 85 -137 102 -165 17 -27 53 -84 80 -125 60
-93 173 -277 190 -309 l12 -24 -3 -601 c-2 -331 -3 -746 -3 -923 l0 -322 19
-22 c11 -12 94 -57 185 -101 91 -43 185 -90 210 -103 25 -13 135 -65 245 -115
110 -51 273 -128 362 -171 88 -43 173 -79 187 -79 20 0 277 121 461 217 17 8
177 89 357 179 l327 164 16 22 15 22 -1 486 c-1 267 -4 584 -8 705 -3 121 -4
237 -2 258 l3 37 72 55 c39 29 87 65 106 80 19 14 63 47 97 73 34 26 99 74
145 107 45 33 165 125 267 205 283 221 247 205 341 155 119 -64 851 -425 862
-425 3 0 32 -15 65 -33 32 -18 87 -45 123 -61 36 -16 171 -78 300 -138 129
-61 282 -132 340 -159 l106 -49 35 0 c19 0 44 7 56 15 12 8 104 56 205 106
100 51 246 123 323 162 301 149 511 260 529 277 l19 18 -2 664 -2 663 -18 25
c-27 38 -713 387 -1316 670 -49 23 -180 86 -290 140 -110 54 -256 125 -325
158 -69 33 -206 99 -305 147 -99 48 -220 107 -270 130 -49 24 -196 95 -325
157 -318 155 -390 189 -725 347 -60 29 -117 56 -125 62 -8 5 -31 16 -50 25
-19 8 -76 35 -127 60 l-92 45 -6 19 c-3 11 -7 492 -8 1070 l-2 1050 -30 24
c-16 14 -40 27 -51 30 -12 3 -264 126 -559 272 l-537 266 -37 5 -36 4 -25 -14z
m270 -244 c107 -53 249 -123 315 -156 66 -33 176 -86 245 -117 234 -105 233
-103 65 -180 -111 -51 -537 -262 -575 -286 -91 -55 -192 -104 -214 -104 -14 0
-72 25 -128 56 -57 31 -139 73 -183 94 -44 21 -132 62 -195 92 -63 30 -158 74
-210 97 -215 96 -248 117 -223 142 4 4 109 59 233 122 252 128 412 211 545
286 116 64 98 66 325 -46z m861 -1478 l-3 -980 -12 -14 c-6 -8 -67 -42 -136
-76 -164 -81 -462 -235 -475 -245 -5 -5 -30 -19 -55 -32 -49 -27 -86 -48 -168
-97 -57 -33 -83 -38 -100 -18 l-10 12 10 195 10 195 -6 776 -6 776 17 15 c10
8 97 54 193 103 96 48 220 110 275 138 55 27 146 76 202 108 56 33 104 59 107
59 3 0 31 16 63 35 32 20 67 34 78 33 l20 -3 -4 -980z m-1949 924 c102 -56
673 -339 781 -387 37 -17 68 -37 69 -44 1 -7 3 -1588 5 -3513 1 -1925 3 -3511
4 -3524 0 -12 -4 -28 -11 -35 l-11 -11 -132 67 c-150 76 -312 154 -607 292
-113 53 -211 103 -218 110 l-13 13 0 3529 c0 1941 0 3535 1 3542 0 23 39 12
132 -39z m-1594 -329 c72 -38 134 -70 137 -70 3 0 112 -52 243 -116 274 -134
409 -199 507 -244 39 -18 111 -51 160 -75 50 -24 122 -58 160 -75 39 -17 80
-40 91 -52 l22 -20 0 -449 0 -449 -25 0 c-14 0 -54 16 -90 36 -74 40 -285 146
-513 257 -85 41 -267 130 -404 196 -137 67 -250 121 -252 121 -2 0 -84 39
-181 86 -196 95 -397 190 -428 204 -11 4 -58 26 -105 48 -47 22 -128 59 -180
82 -124 54 -150 67 -180 91 l-25 19 32 28 c17 15 62 40 100 57 100 43 518 266
718 381 11 7 34 12 51 13 l30 1 132 -70z m-1000 -601 c187 -98 422 -215 712
-351 52 -25 156 -75 230 -111 74 -36 194 -93 265 -128 72 -34 222 -106 333
-160 112 -55 206 -99 208 -99 2 0 66 -31 141 -68 76 -38 167 -81 203 -97 114
-49 174 -78 200 -96 l25 -17 0 -548 0 -549 -27 -3 -28 -3 -77 43 c-80 45 -203
106 -308 153 -33 15 -163 78 -290 140 -363 178 -482 235 -488 235 -9 0 -163
72 -352 165 -93 46 -228 111 -300 145 -71 34 -175 83 -230 110 -55 26 -156 73
-225 105 -69 32 -130 63 -136 69 l-12 11 -4 552 c-3 304 -3 555 0 558 14 13
52 0 160 -56z m4689 -1151 c66 -36 491 -248 498 -248 6 0 225 -105 490 -235
127 -63 243 -117 258 -120 15 -4 29 -11 32 -15 3 -4 51 -30 107 -57 252 -123
389 -189 512 -247 72 -35 178 -86 236 -114 122 -59 455 -219 550 -264 36 -17
72 -35 80 -40 16 -9 159 -78 340 -165 63 -30 174 -83 245 -118 72 -35 172 -82
224 -105 52 -23 109 -51 127 -62 l34 -20 0 -19 0 -19 -137 -66 c-198 -95 -461
-228 -567 -286 -50 -28 -112 -62 -137 -77 l-47 -25 -255 127 c-140 70 -257
127 -260 127 -8 0 -238 108 -257 120 -8 6 -33 19 -55 29 -141 65 -408 191
-445 210 -8 4 -28 15 -45 24 -16 9 -158 79 -315 155 -157 77 -384 188 -505
247 -646 316 -802 392 -930 455 -136 67 -401 194 -499 240 -26 13 -94 42 -150
65 l-101 41 -3 22 -3 21 25 16 c13 9 48 25 76 36 70 26 244 111 365 177 55 30
161 86 235 125 74 39 144 76 155 84 30 20 59 16 122 -19z m-964 -604 c51 -25
97 -49 102 -54 13 -10 263 -135 510 -255 110 -53 313 -152 450 -220 348 -171
828 -406 1030 -505 94 -45 265 -129 380 -185 116 -57 262 -127 325 -158 119
-56 250 -119 500 -239 80 -38 163 -77 185 -86 75 -30 230 -109 242 -123 l11
-14 2 -530 c2 -615 4 -555 -15 -555 -9 0 -139 61 -290 135 -150 74 -280 135
-287 135 -8 0 -18 4 -24 10 -8 8 -249 130 -258 130 -3 0 -81 37 -541 260 -189
92 -308 147 -380 177 -33 14 -259 124 -502 244 -243 120 -444 219 -448 219 -3
0 -187 90 -408 199 -366 180 -557 272 -659 314 -20 8 -41 24 -46 34 l-10 18
-2 540 c-1 297 -2 543 -1 548 2 17 48 4 134 -39z m-2745 8 c31 -15 102 -53
157 -82 55 -30 160 -83 233 -117 168 -79 174 -83 223 -173 23 -41 71 -124 107
-185 36 -60 74 -126 85 -145 37 -67 90 -155 117 -195 15 -22 39 -62 54 -90 32
-59 57 -102 101 -170 44 -69 197 -320 228 -375 l25 -45 7 -352 8 -353 -21 0
-21 0 -25 43 c-14 23 -37 64 -51 90 -23 43 -424 711 -496 827 -15 25 -40 65
-55 90 -14 25 -58 97 -96 160 -38 63 -74 124 -81 135 -59 101 -167 275 -212
345 -23 36 -66 103 -95 150 -70 114 -76 123 -185 290 -52 80 -95 153 -95 163
l0 17 15 0 c8 0 41 -13 73 -28z m1014 -491 c101 -49 213 -103 251 -119 37 -17
69 -37 71 -44 3 -7 6 -151 9 -320 l4 -306 -9 -14 -9 -13 -27 32 c-15 17 -36
49 -47 70 -70 138 -239 425 -341 581 -174 266 -174 265 98 133z m1715 -797
c48 -26 102 -53 118 -61 17 -8 38 -19 48 -24 75 -41 262 -130 457 -217 l105
-48 3 -19 3 -20 -143 -105 c-257 -190 -544 -406 -607 -458 -62 -52 -84 -61
-96 -41 -9 14 -10 1014 -1 1028 11 17 18 15 113 -35z m4824 -86 c1 -7 0 -251
-1 -543 l-2 -530 -12 -17 c-7 -9 -138 -80 -292 -158 -253 -127 -347 -176 -542
-281 l-63 -34 -15 20 -16 20 8 75 c4 41 8 278 9 525 1 248 5 457 9 465 4 8
143 84 309 168 166 85 338 174 382 199 44 25 103 59 130 74 53 30 94 37 96 17z
m-3673 -476 c120 -59 249 -120 286 -136 114 -50 112 -55 -44 -161 -63 -43
-149 -103 -190 -135 -41 -31 -156 -117 -255 -190 -243 -181 -423 -322 -691
-541 -77 -63 -147 -121 -158 -129 -10 -8 -51 -43 -90 -78 -39 -35 -81 -68 -94
-75 l-23 -11 -8 12 c-4 7 -6 187 -4 400 l5 387 17 25 c10 14 56 52 102 84 332
234 623 454 789 596 103 88 74 92 358 -48z m583 -272 l19 -11 0 -23 0 -24 -97
-73 c-107 -82 -185 -140 -223 -166 -14 -10 -48 -36 -77 -58 -28 -22 -100 -76
-159 -120 -59 -44 -143 -109 -188 -145 -99 -81 -198 -150 -251 -177 -22 -12
-91 -48 -154 -82 -126 -67 -198 -97 -208 -87 -14 13 232 211 597 481 111 83
275 204 363 270 88 66 192 143 231 172 l71 52 28 1 c16 0 37 -5 48 -10z m-900
-922 c6 -56 -5 -1296 -11 -1308 -5 -8 -28 -25 -52 -37 -24 -11 -158 -78 -298
-148 -140 -70 -259 -130 -265 -135 -5 -4 -79 -42 -163 -85 l-153 -78 -15 15
-16 15 11 127 11 127 0 524 0 525 43 27 c23 14 143 75 267 135 124 60 232 112
240 117 8 4 62 33 120 64 58 30 134 71 170 91 67 37 109 45 111 24z"/>
<path d="M5370 6018 c-69 -5 -256 -7 -417 -5 -160 2 -297 1 -303 -3 l-12 -8 0
-586 c0 -323 2 -589 5 -592 3 -3 212 -6 464 -7 l458 -2 13 25 12 25 -4 89 -4
89 -14 14 -14 14 -240 -10 c-230 -10 -346 -14 -371 -12 -6 1 -19 8 -27 17
l-16 15 0 104 0 105 23 14 22 14 185 -9 c102 -4 214 -10 250 -13 l66 -6 22 16
22 15 0 99 0 100 -24 15 -24 16 -23 -5 c-13 -3 -126 -10 -251 -16 l-227 -10
-21 12 -20 13 0 96 0 97 18 21 17 21 275 -11 c151 -6 288 -11 304 -11 l29 -1
14 19 14 19 -3 103 -3 104 -19 14 c-11 8 -27 13 -35 13 -9 -1 -72 -6 -141 -11z"/>
<path d="M6012 6020 l-22 -9 4 -591 c2 -325 6 -594 9 -597 3 -2 200 -6 438 -6
l432 -2 14 21 14 22 -7 91 c-4 50 -12 99 -19 108 l-12 16 -44 -1 c-24 -1 -149
-6 -278 -11 -128 -5 -240 -7 -248 -4 -27 11 -29 49 -21 498 l7 450 -16 13 -17
12 -105 -1 c-58 0 -116 -4 -129 -9z"/>
<path d="M7692 6020 c-54 -8 -55 -9 -90 -105 -17 -44 -49 -125 -72 -180 -23
-55 -57 -138 -76 -185 -19 -47 -42 -100 -50 -117 -8 -18 -21 -50 -28 -70 -20
-56 -100 -239 -168 -382 l-58 -124 6 -19 c8 -26 36 -30 154 -24 l104 5 18 18
c10 10 34 66 53 123 20 58 42 111 50 119 l13 14 238 -2 238 -2 12 -10 c7 -6
29 -62 49 -124 l36 -115 27 -14 28 -14 114 -1 114 0 13 11 c21 17 15 46 -27
125 -23 41 -63 125 -91 187 -28 61 -66 143 -85 182 -19 39 -34 75 -34 79 0 4
-6 21 -14 38 -26 57 -53 120 -101 237 -26 63 -65 156 -86 205 -22 50 -39 95
-39 101 0 6 -9 19 -20 29 l-19 18 -83 1 c-46 1 -102 -1 -126 -4z m111 -352 c9
-7 32 -53 51 -103 19 -49 46 -116 60 -148 30 -67 32 -80 10 -101 l-15 -16
-128 0 -127 0 -12 12 c-19 19 -14 48 24 138 20 47 43 103 51 125 41 110 50
120 86 93z"/>
<path d="M8587 6019 c-25 -15 -21 -42 23 -143 21 -50 71 -185 109 -301 39
-115 95 -284 126 -375 59 -178 79 -242 95 -306 5 -22 18 -48 27 -57 l18 -15
112 -6 112 -5 19 17 20 17 27 90 c15 50 44 142 65 205 21 63 45 142 55 175 28
97 47 157 65 205 l16 45 30 0 29 0 18 -60 c11 -33 32 -105 49 -160 17 -55 45
-145 64 -200 18 -55 45 -145 59 -200 l25 -100 21 -17 21 -18 107 0 107 0 22
16 c12 8 22 21 22 28 0 7 9 39 19 72 10 32 29 93 41 134 26 86 100 306 178
530 83 237 100 282 122 325 11 21 20 52 20 67 l0 27 -19 10 -19 10 -116 -6
-116 -6 -16 -18 c-8 -9 -26 -55 -39 -101 -89 -311 -120 -425 -140 -512 -13
-54 -29 -112 -36 -127 l-11 -29 -18 0 c-29 0 -36 17 -80 185 -23 88 -50 185
-60 215 -10 30 -32 109 -48 175 -35 138 -47 173 -69 197 l-16 18 -113 0 -113
0 -20 -27 c-12 -14 -35 -72 -52 -127 -17 -56 -46 -150 -64 -211 -19 -60 -45
-148 -59 -195 -13 -47 -33 -114 -44 -149 l-19 -65 -17 -10 -17 -11 -15 20 c-8
11 -21 43 -29 70 -7 28 -26 95 -41 150 -15 55 -33 125 -40 155 -7 30 -31 125
-54 210 l-41 155 -17 16 -17 17 -125 5 -125 6 -18 -10z"/>
<path d="M11111 6013 l-21 -18 -66 -165 c-95 -237 -107 -267 -144 -345 -34
-73 -54 -117 -90 -200 -61 -138 -110 -239 -157 -325 -58 -104 -63 -124 -34
-140 l20 -10 115 0 116 0 19 19 c11 11 34 66 52 123 18 57 40 111 49 122 l18
18 113 -3 c63 -1 173 -1 246 0 l131 3 15 -24 c9 -12 23 -50 31 -83 9 -33 24
-82 35 -110 l19 -50 29 -6 c16 -3 75 -6 132 -7 l102 -2 20 10 c29 16 26 26
-71 219 -49 99 -101 208 -114 243 -28 72 -97 234 -126 293 -31 66 -89 205
-121 290 -44 117 -57 141 -85 154 l-25 11 -93 0 -94 0 -21 -17z m142 -350 c8
-10 25 -43 36 -73 25 -64 29 -73 70 -162 34 -72 38 -97 19 -116 l-12 -12 -137
0 -137 0 -6 16 c-10 27 -7 43 24 109 16 35 41 99 55 141 35 106 57 130 88 97z"/>
<path d="M14395 6018 c-77 -5 -267 -6 -422 -3 l-282 5 -7 -11 c-3 -6 -6 -272
-5 -591 l0 -580 11 -13 10 -12 243 4 c133 2 331 1 440 -4 l197 -8 25 8 25 9 1
21 c0 12 0 60 -1 107 l-1 85 -17 17 -17 17 -314 -11 -313 -12 -14 19 -14 19 0
101 0 101 13 18 c16 22 8 22 300 7 308 -16 292 -23 285 130 l-3 81 -18 13 -18
13 -97 -5 c-53 -2 -167 -8 -252 -12 l-155 -8 -23 8 c-12 5 -27 20 -32 34 l-9
25 6 80 c3 44 11 87 18 96 l11 16 310 -11 309 -11 13 17 12 17 0 102 0 103
-22 15 c-12 9 -29 15 -38 15 -8 -1 -78 -6 -155 -11z"/>
<path d="M3100 6005 l-11 -14 3 -233 c4 -343 4 -656 -2 -801 l-5 -128 13 -8
c7 -4 138 -6 290 -4 l277 4 89 20 c229 52 394 205 460 428 l16 55 0 86 0 87
-20 78 c-52 205 -228 369 -450 420 l-75 17 -287 3 -287 3 -11 -13z m574 -240
c86 -22 119 -41 179 -99 l54 -51 23 -60 23 -60 -1 -83 0 -84 -33 -64 -32 -64
-44 -41 c-25 -22 -70 -52 -101 -66 l-57 -25 -144 -9 -145 -9 -14 14 -15 14 -1
333 -1 332 13 18 13 19 112 0 113 0 58 -15z"/>
<path d="M12232 6003 l-9 -18 7 -335 c4 -184 3 -438 0 -565 l-8 -230 14 -22
14 -23 114 0 113 0 17 19 18 20 -11 143 c-7 79 -14 150 -17 159 l-5 17 28 22
28 22 93 -4 94 -3 22 -27 c12 -15 35 -53 52 -85 62 -115 133 -236 152 -258
l19 -22 137 -7 136 -7 20 11 c34 18 20 42 -148 254 -18 22 -48 65 -68 94 l-35
53 3 22 3 21 60 34 c100 56 138 106 165 221 l13 54 -6 76 c-6 83 -23 130 -68
202 l-29 46 -60 42 -59 42 -78 20 -78 21 -317 4 -317 5 -9 -18z m638 -249
c138 -55 145 -223 13 -301 l-48 -28 -155 -3 -155 -3 -15 10 -15 10 -3 150 -3
150 21 21 22 22 149 -6 149 -6 40 -16z"/>
<path d="M7868 4439 l-18 -10 0 -248 0 -247 16 -55 c9 -30 30 -76 47 -104 l31
-50 47 -32 c61 -41 116 -56 210 -56 l76 0 55 25 c71 33 118 75 151 137 l28 50
9 83 c6 46 10 172 10 281 l0 197 -20 20 -20 20 -29 0 -30 0 -20 -25 -19 -26 5
-222 6 -223 -17 -51 c-22 -67 -50 -101 -100 -124 l-41 -19 -54 0 -54 0 -44 22
-44 22 -32 55 -32 56 3 252 2 252 -22 15 c-25 18 -74 20 -100 5z"/>
<path d="M9040 4439 c-36 -15 -35 0 -33 -394 l2 -367 12 -14 11 -14 49 0 49 0
8 23 c6 16 9 662 3 735 -1 10 -61 44 -73 41 -2 0 -14 -5 -28 -10z"/>
<path d="M9656 4434 l-16 -15 0 -362 0 -363 16 -22 15 -22 249 0 249 0 15 22
c9 12 16 32 16 44 l0 23 -27 21 -28 22 -176 -7 -177 -7 -10 18 -10 19 5 295 6
295 -22 28 -22 27 -34 0 -34 0 -15 -16z"/>
<path d="M6797 4426 l-16 -16 1 -366 1 -365 15 -15 14 -15 222 3 221 3 60 31
60 31 28 40 28 40 6 41 c3 22 2 57 -1 78 l-7 37 -55 54 c-63 63 -62 59 -26
103 42 51 52 74 52 120 l0 41 -24 47 -24 47 -58 35 -58 35 -212 3 -211 3 -16
-15z m415 -123 l32 -19 14 -36 14 -36 -17 -35 -17 -35 -31 -15 -32 -15 -122
-7 -121 -7 -20 20 -21 21 6 78 6 78 16 18 16 19 122 -5 122 -5 33 -19z m26
-318 l38 -16 17 -28 c34 -57 17 -116 -43 -150 l-38 -21 -144 0 -144 0 -12 12
-12 12 0 91 0 91 12 12 12 12 138 0 138 0 38 -15z"/>
<path d="M10485 4420 c-20 -22 -19 -60 2 -89 l16 -24 98 6 98 6 15 -14 14 -15
-5 -298 -6 -298 12 -22 12 -22 44 0 44 0 16 17 17 16 -7 304 -8 303 13 15 12
14 108 -6 108 -6 13 41 12 41 -15 23 -15 23 -292 1 -291 0 -15 -16z"/>
</g>
</svg>
